<svg width="24" height="24" viewBox="0 0 24 24" fill="none" xmlns="http://www.w3.org/2000/svg">
<path d="M12.5007 5.5623C12.5007 6.00302 12.5007 6.44374 12.5007 6.89781C12.7693 6.88232 12.7693 6.88232 13.0433 6.86651C14.6998 6.87529 16.1845 7.41893 17.5089 8.40026C17.6217 8.51841 17.7344 8.63655 17.8506 8.75827C18.3095 9.19425 18.7294 9.18759 19.3452 9.23496C19.533 9.86098 19.533 9.86098 19.3452 10.2366C14.4973 10.2366 9.64943 10.2366 4.65462 10.2366C4.48768 9.56884 4.48768 9.56884 4.65462 9.23496C4.82334 9.22463 4.99205 9.2143 5.16587 9.20366C5.76296 9.13799 6.03655 8.92337 6.47008 8.51503C7.68217 7.37535 9.27359 6.88276 10.9253 6.87695C11.1146 6.88383 11.304 6.89072 11.4991 6.89781C11.4991 6.4571 11.4991 6.01638 11.4991 5.5623C11.9149 5.35439 12.0685 5.43263 12.5007 5.5623ZM7.65952 9.23496C10.5242 9.23496 13.3889 9.23496 16.3403 9.23496C15.1619 8.05655 13.5856 7.99467 11.9999 7.98292C10.4143 7.99467 8.83793 8.05655 7.65952 9.23496Z" fill="black"/>
<path d="M5.99016 10.9044C6.3207 10.9044 6.65124 10.9044 6.99179 10.9044C6.99423 11.0466 6.99666 11.1889 6.99917 11.3355C7.00939 11.866 7.02178 12.3965 7.03561 12.9269C7.04114 13.156 7.04582 13.3851 7.04963 13.6142C7.05526 13.9445 7.06425 14.2748 7.07331 14.6051C7.07768 14.8035 7.08205 15.002 7.08655 15.2064C7.16504 15.7927 7.29869 16.1148 7.65955 16.5803C8.12895 16.7367 8.42266 16.7699 8.9089 16.7741C9.13542 16.7765 9.13542 16.7765 9.36651 16.779C9.61066 16.78 9.61066 16.78 9.85975 16.7811C10.0275 16.7821 10.1953 16.783 10.3681 16.784C10.7231 16.7856 11.0782 16.7867 11.4332 16.7873C11.9758 16.7889 12.5183 16.7941 13.0609 16.7994C13.4059 16.8005 13.7509 16.8014 14.0958 16.802C14.2579 16.8041 14.42 16.8061 14.587 16.8082C15.7164 16.809 15.7164 16.809 16.6742 16.2464C16.8615 15.6846 16.8759 15.2296 16.894 14.6377C16.901 14.4208 16.908 14.204 16.9152 13.9807C16.9218 13.7517 16.9285 13.5227 16.9351 13.2937C16.9423 13.0627 16.9496 12.8318 16.9569 12.6008C16.9747 12.0353 16.9917 11.4699 17.0081 10.9044C17.3387 10.9044 17.6692 10.9044 18.0098 10.9044C18.0098 11.1247 18.0098 11.3451 18.0098 11.5721C18.4505 11.5721 18.8912 11.5721 19.3453 11.5721C19.5331 12.1981 19.5331 12.1981 19.3453 12.5737C18.9045 12.5737 18.4638 12.5737 18.0098 12.5737C18.015 12.7479 18.015 12.7479 18.0204 12.9256C18.0343 13.4552 18.0429 13.9847 18.0515 14.5144C18.0571 14.6971 18.0627 14.8798 18.0684 15.068C18.0812 16.1205 18.084 16.801 17.342 17.5819C16.8063 17.9186 16.3834 17.9593 15.7562 17.9643C15.5723 17.9664 15.3884 17.9685 15.1989 17.9707C15.001 17.9711 14.8031 17.9715 14.5992 17.9719C14.3951 17.973 14.1909 17.9741 13.9805 17.9752C13.5486 17.9769 13.1167 17.9777 12.6847 17.9777C12.0245 17.9784 11.3644 17.9844 10.7042 17.9908C10.2845 17.9918 9.86475 17.9924 9.44501 17.9927C9.24779 17.9951 9.05056 17.9975 8.84736 18C7.79848 17.9942 7.10169 17.9889 6.32404 17.248C5.94865 16.7254 5.95082 16.2717 5.95755 15.6386C5.95863 15.46 5.95971 15.2814 5.96081 15.0974C5.96361 14.9119 5.96641 14.7264 5.96929 14.5353C5.9708 14.3472 5.9723 14.1591 5.97386 13.9653C5.97779 13.5014 5.98328 13.0376 5.99016 12.5737C5.54944 12.5737 5.10872 12.5737 4.65465 12.5737C4.46684 11.9477 4.46684 11.9477 4.65465 11.5721C5.09537 11.5721 5.53609 11.5721 5.99016 11.5721C5.99016 11.3518 5.99016 11.1314 5.99016 10.9044Z" fill="black"/>
<path d="M12 11.2382V15.2448" stroke="black" stroke-width="1.2"/>
<g filter="url(#filter0_d_6010_4734)">
<path d="M9.9967 13.2415H14.0032" stroke="black" stroke-width="1.2"/>
</g>
<defs>
<filter id="filter0_d_6010_4734" x="5.9967" y="12.6415" width="12.0066" height="9.20001" filterUnits="userSpaceOnUse" color-interpolation-filters="sRGB">
<feFlood flood-opacity="0" result="BackgroundImageFix"/>
<feColorMatrix in="SourceAlpha" type="matrix" values="0 0 0 0 0 0 0 0 0 0 0 0 0 0 0 0 0 0 127 0" result="hardAlpha"/>
<feOffset dy="4"/>
<feGaussianBlur stdDeviation="2"/>
<feComposite in2="hardAlpha" operator="out"/>
<feColorMatrix type="matrix" values="0 0 0 0 0 0 0 0 0 0 0 0 0 0 0 0 0 0 0.25 0"/>
<feBlend mode="normal" in2="BackgroundImageFix" result="effect1_dropShadow_6010_4734"/>
<feBlend mode="normal" in="SourceGraphic" in2="effect1_dropShadow_6010_4734" result="shape"/>
</filter>
</defs>
</svg>
