<svg width="18" height="18" viewBox="0 0 18 18" fill="none" xmlns="http://www.w3.org/2000/svg">
<path d="M12.1388 14.526L10.323 12.7091C9.62082 12.9602 8.86179 13.0067 8.13422 12.8432C7.40665 12.6797 6.74047 12.313 6.21317 11.7857C5.68588 11.2584 5.31916 10.5922 5.15568 9.86465C4.99221 9.13708 5.0387 8.37805 5.28975 7.67587L2.97225 5.35838C1.05525 7.06275 0 9 0 9C0 9 3.375 15.1875 9 15.1875C10.0805 15.1837 11.1487 14.9586 12.1388 14.526ZM5.86125 3.474C6.85131 3.04135 7.91954 2.81622 9 2.8125C14.625 2.8125 18 9 18 9C18 9 16.9436 10.9361 15.0289 12.6427L12.7091 10.323C12.9602 9.62082 13.0067 8.86179 12.8432 8.13422C12.6797 7.40665 12.313 6.74047 11.7857 6.21317C11.2584 5.68588 10.5922 5.31916 9.86465 5.15568C9.13708 4.99221 8.37805 5.0387 7.67587 5.28975L5.86125 3.47512V3.474Z" fill="black"/>
<path d="M6.21544 8.60181C6.15355 9.03416 6.19321 9.47498 6.33127 9.88934C6.46933 10.3037 6.70199 10.6802 7.01083 10.989C7.31966 11.2979 7.69617 11.5305 8.11053 11.6686C8.52489 11.8067 8.96571 11.8463 9.39806 11.7844L6.21431 8.60181H6.21544ZM11.7842 9.39831L8.60156 6.21456C9.03391 6.15267 9.47473 6.19233 9.88909 6.33039C10.3035 6.46845 10.68 6.70111 10.9888 7.00994C11.2976 7.31878 11.5303 7.69529 11.6684 8.10965C11.8064 8.52401 11.8461 8.96483 11.7842 9.39718V9.39831ZM15.3516 16.1483L1.85156 2.64831L2.64806 1.85181L16.1481 15.3518L15.3516 16.1483Z" fill="black"/>
</svg>
